Coordinates
version=1
nRows=6
nColumns=107
inDegrees=yes

Units are S.I. units (second, meters, Newtons, ...)
If the header above contains a line with 'inDegrees', this indicates whether rotational values are in degrees (yes) or radians (no).

endheader
time	sternoclavicular_r2	sternoclavicular_r3	unrotscap_r3	unrotscap_r2	acromioclavicular_r2	acromioclavicular_r3	acromioclavicular_r1	unrothum_r1	unrothum_r3	unrothum_r2	elv_angle	shoulder_elv	shoulder1_r2	shoulder_rot	elbow_flexion	pro_sup	deviation	flexion	proximal_distal_r1	proximal_distal_r3	cmc_flexion	cmc_abduction	mp_flexion	ip_flexion	mcp2_flexion	mcp2_abduction	pm2_flexion	md2_flexion	mcp3_flexion	mcp3_abduction	pm3_flexion	md3_flexion	mcp4_flexion	mcp4_abduction	pm4_flexion	md4_flexion	mcp5_flexion	mcp5_abduction	pm5_flexion	md5_flexion	bicpt_tx	bicpt_ty	bicpt_tz	bicpt2_tx	bicpt2_ty	bicpt2_tz	ptpt_tx	ptpt_ty	ptpt_tz	FCUpt_tx	FCUpt_ty	FCUpt_tz	EDCpt_tx	EDCpt_ty	EDCpt_tz	APLpt_tx	APLpt_ty	APLpt_tz	FPLpt_tx	FPLpt_ty	FPLpt_tz	FPLpt2_tx	FPLpt2_ty	FPLpt2_tz	PEC1pt2_tx	PEC1pt2_ty	PEC1pt2_tz	PEC1pt3_tx	PEC1pt3_ty	PEC1pt3_tz	PEC2pt2_tx	PEC2pt2_ty	PEC2pt2_tz	PEC2pt3_tx	PEC2pt3_ty	PEC2pt3_tz	PEC3pt2_tx	PEC3pt2_ty	PEC3pt2_tz	PEC3pt3_tx	PEC3pt3_ty	PEC3pt3_tz	DELT2pt2a_tx	DELT2pt2a_ty	DELT2pt2a_tz	DELT2pt2_tx	DELT2pt2_ty	DELT2pt2_tz	LAT1pt2_tx	LAT1pt2_ty	LAT1pt2_tz	LAT1pt3_tx	LAT1pt3_ty	LAT1pt3_tz	LAT2pt2_tx	LAT2pt2_ty	LAT2pt2_tz	LAT2pt3_tx	LAT2pt3_ty	LAT2pt3_tz	LAT3pt2_tx	LAT3pt2_ty	LAT3pt2_tz	LAT3pt3_tx	LAT3pt3_ty	LAT3pt3_tz
      0.00000000	     -0.32351911	      0.13702743	     -0.13702743	      0.32351911	     -0.06550604	      0.52939677	      0.23796020	     -0.23796020	     -0.52939677	      0.06550604	     99.74005898	     76.59602530	     -1.74079243	    -24.13954545	     28.48084534	     46.06708868	      0.16794516	      0.05525633	      0.20483876	      0.02762816	     30.98643344	    -22.25545340	      1.62311456	      3.65334239	    -10.98843363	      9.60236428	     13.76699697	    -27.65176799	    -18.19591418	      7.45103483	      7.45558122	     11.49957654	    -16.80568439	     -4.28067883	     -2.86288918	     20.79459786	    -24.86385733	    -13.53252121	      3.54553378	      5.05798384	      0.00084206	     -0.03086434	     -0.00482580	      0.01654364	     -0.01793696	     -0.00679655	      0.00414616	     -0.06710098	     -0.00376095	      0.00839674	     -0.18336363	     -0.00041563	     -0.00552804	      0.00163273	      0.00009289	     -0.00005909	     -0.00002364	     -0.00011818	     -0.00007564	     -0.00022691	     -0.00012764	     -0.00000979	     -0.00024124	     -0.00028949	      0.00251065	      0.00880855	      0.00612769	     -0.00821280	      0.01982988	     -0.01880860	      0.00251065	      0.00880855	      0.00612769	      0.00055319	      0.01838306	     -0.00965962	      0.00396415	      0.00489832	      0.01600713	      0.00000000	      0.00784687	      0.00000000	     -0.00719152	     -0.03323419	     -0.00647048	      0.01605039	     -0.00056235	     -0.00486624	     -0.00089362	      0.01497879	     -0.00612769	      0.00246810	      0.02161712	     -0.01787242	     -0.00600003	      0.01297878	     -0.00548939	     -0.01251069	      0.02740438	     -0.03068099	     -0.02348947	      0.01451070	     -0.00736174	     -0.01557454	      0.03165972	     -0.03834060
      0.03333333	     -0.32512603	      0.13770804	     -0.13770804	      0.32512603	     -0.06583141	      0.53202628	      0.23914215	     -0.23914215	     -0.53202628	      0.06583141	     99.37213548	     76.97647840	     -1.73437095	    -22.09244249	     28.46178004	     44.27163198	      0.19398994	      0.06039305	      0.23246963	      0.03019653	     31.21459478	    -21.84166301	      2.49226068	      2.23687859	     -9.66943432	     10.08064994	     13.51847554	    -28.12568499	    -15.88248455	      7.46755366	      7.01188757	     11.66312750	    -16.15398858	     -4.21685481	     -2.48049704	     22.68349950	    -24.26677423	    -13.62223933	      4.00372100	      5.05310389	      0.00084143	     -0.03086216	     -0.00482545	      0.01656156	     -0.01793178	     -0.00700126	      0.00427883	     -0.06701520	     -0.00361632	      0.00821311	     -0.18340362	     -0.00040989	     -0.00531258	      0.00155682	      0.00011082	     -0.00006484	     -0.00002594	     -0.00012969	     -0.00008300	     -0.00024900	     -0.00014006	     -0.00001006	     -0.00023910	     -0.00028692	      0.00252312	      0.00885230	      0.00615812	     -0.00825360	      0.01992837	     -0.01890202	      0.00252312	      0.00885230	      0.00615812	      0.00055594	      0.01847437	     -0.00970760	      0.00397846	      0.00492265	      0.01604177	      0.00000000	      0.00792557	      0.00000000	     -0.00722724	     -0.03339927	     -0.00653580	      0.01495448	     -0.00049705	     -0.00405852	     -0.00089806	      0.01505319	     -0.00615812	      0.00248036	      0.02172449	     -0.01796119	     -0.00602983	      0.01304325	     -0.00551665	     -0.01257284	      0.02754050	     -0.03083338	     -0.02360614	      0.01458278	     -0.00739830	     -0.01565190	      0.03181697	     -0.03853104
      0.06666667	     -0.32534961	      0.13780274	     -0.13780274	      0.32534961	     -0.06587668	      0.53239215	      0.23930661	     -0.23930661	     -0.53239215	      0.06587668	     99.38220757	     77.02941321	     -1.73454674	    -22.10073460	     28.48134232	     44.27001438	      0.19402106	      0.06033155	      0.23250187	      0.03016577	     31.21624058	    -21.84128672	      2.49299427	      2.23723335	     -9.67180234	     10.08120504	     13.51832624	    -28.12582435	    -15.87955610	      7.46695729	      7.01310812	     11.66332041	    -16.15672030	     -4.21776452	     -2.48169241	     22.68313614	    -24.26914533	    -13.62250437	      4.00262620	      5.05304266	      0.00084207	     -0.03086440	     -0.00482581	      0.01656153	     -0.01793710	     -0.00700142	      0.00427895	     -0.06701512	     -0.00361619	      0.00821295	     -0.18340365	     -0.00040987	     -0.00531239	      0.00155676	      0.00011083	     -0.00006478	     -0.00002591	     -0.00012955	     -0.00008291	     -0.00024874	     -0.00013992	     -0.00001006	     -0.00023904	     -0.00028685	      0.00252486	      0.00885839	      0.00616236	     -0.00825927	      0.01994208	     -0.01891502	      0.00252486	      0.00885839	      0.00616236	      0.00055632	      0.01848707	     -0.00971427	      0.00398045	      0.00492604	      0.01604657	      0.00000000	      0.00793656	      0.00000000	     -0.00723221	     -0.03342223	     -0.00654492	      0.01495898	     -0.00049732	     -0.00406173	     -0.00089868	      0.01506354	     -0.00616236	      0.00248206	      0.02173943	     -0.01797354	     -0.00603398	      0.01305222	     -0.00552045	     -0.01258148	      0.02755944	     -0.03085459	     -0.02362237	      0.01459281	     -0.00740339	     -0.01566266	      0.03183885	     -0.03855753
      0.10000000	     -0.32633369	      0.13821955	     -0.13821955	      0.32633369	     -0.06607593	      0.53400246	      0.24003043	     -0.24003043	     -0.53400246	      0.06607593	     99.05436769	     77.26240176	     -1.72882485	    -20.72240276	     28.69186861	     43.41004710	      0.21598998	      0.06498936	      0.25494416	      0.03249468	     31.61549743	    -21.54888844	      2.55942627	      1.53694016	     -8.32051329	     10.40364995	     13.36275569	    -27.25016406	    -13.32850117	      7.30265223	      6.87691601	     11.24707821	    -14.63014966	     -4.56986322	     -2.52530708	     22.80741675	    -22.84634257	    -13.72595653	      3.64659584	      5.00547775	      0.00084904	     -0.03088853	     -0.00482970	      0.01656749	     -0.01799429	     -0.00709786	      0.00434249	     -0.06697403	     -0.00354691	      0.00812535	     -0.18342248	     -0.00040625	     -0.00520919	      0.00152075	      0.00011879	     -0.00007003	     -0.00002801	     -0.00014005	     -0.00008963	     -0.00026890	     -0.00015126	     -0.00001049	     -0.00023509	     -0.00028211	      0.00253249	      0.00888518	      0.00618100	     -0.00828425	      0.02000239	     -0.01897223	      0.00253249	      0.00888518	      0.00618100	      0.00055801	      0.01854299	     -0.00974366	      0.00398919	      0.00494094	      0.01606759	      0.00000000	      0.00798499	      0.00000000	     -0.00725409	     -0.03352333	     -0.00658512	      0.01418965	     -0.00045423	     -0.00355303	     -0.00090140	      0.01510910	     -0.00618100	      0.00248957	      0.02180519	     -0.01802791	     -0.00605223	      0.01309170	     -0.00553714	     -0.01261954	      0.02764279	     -0.03094791	     -0.02369382	      0.01463695	     -0.00742578	     -0.01571003	      0.03193515	     -0.03867416
      0.13333333	     -0.32758808	      0.13875085	     -0.13875085	      0.32758808	     -0.06632992	      0.53605509	      0.24095308	     -0.24095308	     -0.53605509	      0.06632992	     98.78524415	     77.55938868	     -1.72412776	    -19.23855244	     28.69582193	     42.17820530	      0.23069000	      0.06492300	      0.26951967	      0.03246150	     31.58841078	    -21.45967388	      3.05517277	      0.59024492	     -7.60058212	     10.51751120	     13.15932406	    -26.86966678	    -12.41309645	      7.32693161	      6.81207057	     11.71783852	    -13.72287035	     -4.52919061	     -2.93334199	     23.38202894	    -22.06735420	    -13.72287991	      3.22238126	      5.01424914	      0.00084917	     -0.03088898	     -0.00482977	      0.01657307	     -0.01799536	     -0.00723419	      0.00443351	     -0.06691518	     -0.00344768	      0.00800027	     -0.18344908	     -0.00040010	     -0.00506137	      0.00146958	      0.00012950	     -0.00006995	     -0.00002798	     -0.00013990	     -0.00008954	     -0.00026861	     -0.00015109	     -0.00001046	     -0.00023537	     -0.00028244	      0.00254223	      0.00891934	      0.00620476	     -0.00831610	      0.02007928	     -0.01904515	      0.00254223	      0.00891934	      0.00620476	      0.00056015	      0.01861427	     -0.00978111	      0.00400029	      0.00495993	      0.01609419	      0.00000000	      0.00804695	      0.00000000	     -0.00728197	     -0.03365219	     -0.00663654	      0.01333302	     -0.00040866	     -0.00303841	     -0.00090486	      0.01516718	     -0.00620476	      0.00249914	      0.02188900	     -0.01809721	     -0.00607549	      0.01314202	     -0.00555843	     -0.01266804	      0.02774905	     -0.03106687	     -0.02378490	      0.01469321	     -0.00745433	     -0.01577042	      0.03205791	     -0.03882282
      0.16666667	     -0.32870244	      0.13922284	     -0.13922284	      0.32870244	     -0.06655556	      0.53787861	      0.24177273	     -0.24177273	     -0.53787861	      0.06655556	     98.53337604	     77.82322527	     -1.71973183	    -18.00546361	     28.72813563	     40.83127894	      0.23388368	      0.05509450	      0.27263945	      0.02754725	     31.83350289	    -21.35334427	      1.72838031	      1.71706034	     -6.92711467	     10.30073683	     12.81185088	    -27.38004144	    -11.91630572	      7.14893719	      7.01099329	     10.76516034	    -12.85283758	     -4.60069216	     -3.57752325	     21.38714955	    -21.56797356	    -13.70278684	      2.06409176	      5.07090824	      0.00085024	     -0.03089268	     -0.00483037	      0.01657517	     -0.01800414	     -0.00738081	      0.00453303	     -0.06685082	     -0.00333918	      0.00786404	     -0.18347767	     -0.00039206	     -0.00489974	      0.00141417	      0.00014027	     -0.00005891	     -0.00002356	     -0.00011782	     -0.00007541	     -0.00022622	     -0.00012725	     -0.00001071	     -0.00023285	     -0.00027942	      0.00255087	      0.00894968	      0.00622586	     -0.00834439	      0.02014759	     -0.01910994	      0.00255087	      0.00894968	      0.00622586	      0.00056206	      0.01867759	     -0.00981438	      0.00401013	      0.00497680	      0.01611766	      0.00000000	      0.00810220	      0.00000000	     -0.00730674	     -0.03376666	     -0.00668238	      0.01259870	     -0.00037148	     -0.00263770	     -0.00090794	      0.01521878	     -0.00622586	      0.00250764	      0.02196346	     -0.01815877	     -0.00609616	      0.01318672	     -0.00557734	     -0.01271114	      0.02784344	     -0.03117255	     -0.02386581	      0.01474319	     -0.00747968	     -0.01582407	      0.03216696	     -0.03895488
